<svg width="21" height="20" viewBox="0 0 21 20" fill="none" xmlns="http://www.w3.org/2000/svg">
    <path d="M8.16699 10H4.50033C4.03362 10 3.80026 10 3.622 10.0908C3.4652 10.1707 3.33771 10.2982 3.25782 10.455C3.16699 10.6333 3.16699 10.8666 3.16699 11.3333V16.1667C3.16699 16.6334 3.16699 16.8667 3.25782 17.045C3.33771 17.2018 3.4652 17.3293 3.622 17.4092C3.80026 17.5 4.03361 17.5 4.50033 17.5H8.16699M8.16699 17.5H13.167M8.16699 17.5L8.16699 7.16667C8.16699 6.69996 8.16699 6.4666 8.25782 6.28834C8.33771 6.13154 8.4652 6.00406 8.622 5.92416C8.80026 5.83333 9.03361 5.83333 9.50033 5.83333H11.8337C12.3004 5.83333 12.5337 5.83333 12.712 5.92416C12.8688 6.00406 12.9963 6.13154 13.0762 6.28834C13.167 6.4666 13.167 6.69996 13.167 7.16667V17.5M13.167 17.5H16.8337C17.3004 17.5 17.5337 17.5 17.712 17.4092C17.8688 17.3293 17.9963 17.2018 18.0762 17.045C18.167 16.8667 18.167 16.6334 18.167 16.1667V3.83333C18.167 3.36662 18.167 3.13327 18.0762 2.95501C17.9963 2.79821 17.8688 2.67072 17.712 2.59083C17.5337 2.5 17.3004 2.5 16.8337 2.5H14.5003C14.0336 2.5 13.8003 2.5 13.622 2.59083C13.4652 2.67072 13.3377 2.79821 13.2578 2.95501C13.167 3.13327 13.167 3.36662 13.167 3.83333V6.66667"
          stroke="#939393" stroke-width="1.5" stroke-linecap="round" stroke-linejoin="round"/>
</svg>
