<svg width="21" height="20" viewBox="0 0 21 20" fill="none" xmlns="http://www.w3.org/2000/svg">
    <path d="M10.667 5.00008V18.3334M10.667 5.00008H7.72057C7.28643 5.00008 6.87008 4.82449 6.5631 4.51193C6.25612 4.19937 6.08366 3.77544 6.08366 3.33341C6.08366 2.89139 6.25612 2.46746 6.5631 2.1549C6.87008 1.84234 7.28643 1.66675 7.72057 1.66675C10.0122 1.66675 10.667 5.00008 10.667 5.00008ZM10.667 5.00008H13.6134C14.0476 5.00008 14.4639 4.82449 14.7709 4.51193C15.0779 4.19937 15.2503 3.77544 15.2503 3.33341C15.2503 2.89139 15.0779 2.46746 14.7709 2.1549C14.4639 1.84234 14.0476 1.66675 13.6134 1.66675C11.3218 1.66675 10.667 5.00008 10.667 5.00008ZM17.3337 9.16675V15.6667C17.3337 16.6002 17.3337 17.0669 17.152 17.4234C16.9922 17.737 16.7372 17.992 16.4236 18.1518C16.0671 18.3334 15.6004 18.3334 14.667 18.3334L6.66699 18.3334C5.73357 18.3334 5.26686 18.3334 4.91034 18.1518C4.59674 17.992 4.34177 17.737 4.18198 17.4234C4.00033 17.0669 4.00033 16.6002 4.00033 15.6667V9.16675M2.33366 6.33341L2.33366 7.83341C2.33366 8.30013 2.33366 8.53348 2.42449 8.71174C2.50438 8.86854 2.63187 8.99603 2.78867 9.07592C2.96693 9.16675 3.20028 9.16675 3.66699 9.16675L17.667 9.16675C18.1337 9.16675 18.3671 9.16675 18.5453 9.07592C18.7021 8.99603 18.8296 8.86854 18.9095 8.71174C19.0003 8.53348 19.0003 8.30013 19.0003 7.83342V6.33342C19.0003 5.8667 19.0003 5.63335 18.9095 5.45509C18.8296 5.29829 18.7021 5.1708 18.5453 5.09091C18.3671 5.00008 18.1337 5.00008 17.667 5.00008L3.66699 5.00008C3.20028 5.00008 2.96693 5.00008 2.78867 5.09091C2.63187 5.1708 2.50438 5.29829 2.42449 5.45509C2.33366 5.63335 2.33366 5.8667 2.33366 6.33341Z"
          stroke="#939393" stroke-width="1.5" stroke-linecap="round" stroke-linejoin="round"/>
</svg>
