<svg width="12" height="13" viewBox="0 0 12 13" fill="none" xmlns="http://www.w3.org/2000/svg">
    <path d="M10.5 4.75L10.5 1.75M10.5 1.75H7.5M10.5 1.75L6.5 5.75M5 2.75H3.9C3.05992 2.75 2.63988 2.75 2.31901 2.91349C2.03677 3.0573 1.8073 3.28677 1.66349 3.56901C1.5 3.88988 1.5 4.30992 1.5 5.15V8.35C1.5 9.19008 1.5 9.61012 1.66349 9.93099C1.8073 10.2132 2.03677 10.4427 2.31901 10.5865C2.63988 10.75 3.05992 10.75 3.9 10.75H7.1C7.94008 10.75 8.36012 10.75 8.68099 10.5865C8.96323 10.4427 9.1927 10.2132 9.33651 9.93099C9.5 9.61012 9.5 9.19008 9.5 8.35V7.25"
          stroke="#1890FF" stroke-width="1.4" stroke-linecap="round" stroke-linejoin="round"/>
</svg>
