<svg width="21" height="20" viewBox="0 0 21 20" fill="none" xmlns="http://www.w3.org/2000/svg">
    <path d="M14.0001 9.16675L2.33341 9.16675M9.00007 3.33341L7.33341 1.66675M12.3334 18.3334L2.33341 18.3334M19.0001 13.3334C19.0001 14.2539 18.2539 15.0001 17.3334 15.0001C16.4129 15.0001 15.6667 14.2539 15.6667 13.3334C15.6667 12.4129 17.3334 10.8334 17.3334 10.8334C17.3334 10.8334 19.0001 12.4129 19.0001 13.3334ZM8.16674 2.50008L13.8906 8.22394C14.2206 8.55395 14.3856 8.71896 14.4474 8.90923C14.5018 9.0766 14.5018 9.25689 14.4474 9.42426C14.3856 9.61454 14.2206 9.77954 13.8906 10.1096L10.0524 13.9478C9.39233 14.6078 9.06232 14.9378 8.68177 15.0615C8.34703 15.1702 7.98645 15.1702 7.65171 15.0615C7.27116 14.9378 6.94115 14.6078 6.28112 13.9478L3.38569 11.0524C2.72566 10.3923 2.39565 10.0623 2.272 9.68178C2.16324 9.34704 2.16324 8.98646 2.272 8.65172C2.39565 8.27117 2.72566 7.94116 3.38569 7.28113L8.16674 2.50008Z"
          stroke="#939393" stroke-width="1.5" stroke-linecap="round" stroke-linejoin="round"/>
</svg>
