<svg width="20" height="24" viewBox="0 0 20 24" fill="none" xmlns="http://www.w3.org/2000/svg">
    <path d="M16.6666 21.5C16.6666 20.337 16.6666 19.7555 16.5231 19.2824C16.1999 18.217 15.3662 17.3834 14.3009 17.0602C13.8277 16.9167 13.2462 16.9167 12.0832 16.9167H7.91659C6.75362 16.9167 6.17213 16.9167 5.69897 17.0602C4.63363 17.3834 3.79995 18.217 3.47678 19.2824C3.33325 19.7555 3.33325 20.337 3.33325 21.5M13.7499 10.25C13.7499 12.3211 12.071 14 9.99992 14C7.92885 14 6.24992 12.3211 6.24992 10.25C6.24992 8.17893 7.92885 6.5 9.99992 6.5C12.071 6.5 13.7499 8.17893 13.7499 10.25Z"
          stroke="black" stroke-width="1.5" stroke-linecap="round" stroke-linejoin="round"/>
</svg>
